<?xml version="1.0" encoding="UTF-8" standalone="no"?>
<!DOCTYPE svg PUBLIC "-//W3C//DTD SVG 1.1//EN" "http://www.w3.org/Graphics/SVG/1.1/DTD/svg11.dtd">
<svg width="100%" height="100%" viewBox="0 0 71 71" version="1.1" xmlns="http://www.w3.org/2000/svg" xmlns:xlink="http://www.w3.org/1999/xlink" xml:space="preserve" xmlns:serif="http://www.serif.com/" style="fill-rule:evenodd;clip-rule:evenodd;stroke-linejoin:round;stroke-miterlimit:2;">
    <g transform="matrix(1,0,0,1,-563,-313)">
        <g id="_3D-Printer_White" serif:id="3D Printer_White" transform="matrix(1,0,0,1,345.118,-6.00448)">
            <rect x="218.158" y="319.523" width="70" height="70" style="fill:none;"/>
            <clipPath id="_clip1">
                <rect x="218.158" y="319.523" width="70" height="70"/>
            </clipPath>
            <g clip-path="url(#_clip1)">
                <g id="skinny-bug-filled" serif:id="skinny bug filled" transform="matrix(0.515523,0,0,0.515523,1222.27,180.077)">
                    <path d="M-1824.9,270.493C-1821.47,270.493 -1818.19,271.855 -1815.76,274.278C-1813.34,276.702 -1811.98,279.989 -1811.98,283.417L-1811.98,393.353C-1811.98,396.781 -1813.34,400.068 -1815.76,402.492C-1818.19,404.916 -1821.47,406.277 -1824.9,406.277L-1934.84,406.277C-1938.27,406.277 -1941.55,404.916 -1943.98,402.492C-1946.4,400.068 -1947.76,396.781 -1947.76,393.353L-1947.76,283.417C-1947.76,279.989 -1946.4,276.702 -1943.98,274.278C-1941.55,271.855 -1938.27,270.493 -1934.84,270.493L-1824.9,270.493ZM-1882.51,291.644L-1916.84,291.644C-1919.43,291.644 -1921.92,292.673 -1923.75,294.504C-1925.58,296.336 -1926.61,298.82 -1926.61,301.41L-1926.61,373.453C-1926.61,376.043 -1925.58,378.527 -1923.75,380.359C-1921.92,382.19 -1919.43,383.219 -1916.84,383.219L-1915.56,383.219C-1916.12,382.516 -1916.45,381.63 -1916.45,380.667C-1916.45,378.387 -1914.6,376.536 -1912.32,376.536C-1911.97,376.536 -1911.63,376.58 -1911.31,376.661L-1903.51,364.098C-1902.87,363.066 -1901.74,362.437 -1900.53,362.437L-1898.86,362.437L-1898.86,355.173L-1902.03,355.173C-1902.37,355.173 -1902.7,355.353 -1902.88,355.649L-1909.74,366.699C-1909.38,367.206 -1909.18,367.82 -1909.18,368.483C-1909.18,370.214 -1910.59,371.62 -1912.32,371.62C-1914.05,371.62 -1915.45,370.214 -1915.45,368.483C-1915.45,366.751 -1914.05,365.345 -1912.32,365.345C-1912.16,365.345 -1912.01,365.357 -1911.87,365.378L-1905.01,354.328C-1904.37,353.295 -1903.24,352.667 -1902.03,352.667L-1898.86,352.667L-1898.86,345.963L-1902.03,345.963C-1903.24,345.963 -1904.37,345.335 -1905.01,344.302L-1911.87,333.252C-1912.01,333.273 -1912.16,333.284 -1912.32,333.284C-1914.05,333.284 -1915.45,331.879 -1915.45,330.147C-1915.45,328.416 -1914.05,327.01 -1912.32,327.01C-1910.59,327.01 -1909.18,328.416 -1909.18,330.147C-1909.18,330.81 -1909.38,331.424 -1909.74,331.931L-1902.88,342.981C-1902.7,343.277 -1902.37,343.457 -1902.03,343.457L-1898.86,343.457L-1898.86,336.307L-1900.53,336.307C-1901.74,336.307 -1902.87,335.678 -1903.51,334.646L-1911.91,321.116C-1912.04,321.134 -1912.18,321.143 -1912.32,321.143C-1914.05,321.143 -1915.45,319.737 -1915.45,318.006C-1915.45,316.274 -1914.05,314.869 -1912.32,314.869C-1910.59,314.869 -1909.18,316.274 -1909.18,318.006C-1909.18,318.683 -1909.39,319.31 -1909.76,319.823L-1901.38,333.324C-1901.2,333.62 -1900.88,333.801 -1900.53,333.801L-1898.86,333.801L-1898.86,329.07C-1898.86,327.929 -1898.4,326.835 -1897.6,326.028C-1896.79,325.221 -1895.7,324.768 -1894.56,324.768L-1882.8,324.767L-1876.53,324.759C-1874.32,324.756 -1872.52,322.959 -1872.52,320.743L-1872.52,304.281C-1872.52,304.138 -1872.5,304 -1872.47,303.869C-1873.42,303.498 -1874.23,302.804 -1874.74,301.881L-1875.94,299.721L-1878.09,299.721C-1880.53,299.721 -1882.51,297.742 -1882.51,295.3L-1882.51,291.644ZM-1909.07,383.219L-1851.15,383.219C-1851.95,382.65 -1852.47,381.719 -1852.47,380.667C-1852.47,380.005 -1852.26,379.39 -1851.91,378.884L-1860.26,365.42C-1860.44,365.124 -1860.77,364.943 -1861.12,364.943L-1862.79,364.943L-1862.79,369.603C-1862.79,370.744 -1863.24,371.838 -1864.05,372.645C-1864.86,373.452 -1865.95,373.905 -1867.09,373.905L-1894.56,373.905C-1895.7,373.905 -1896.79,373.452 -1897.6,372.645C-1898.4,371.838 -1898.86,370.744 -1898.86,369.603L-1898.86,364.943L-1900.53,364.943C-1900.88,364.943 -1901.2,365.124 -1901.38,365.42L-1909.18,377.983C-1908.56,378.706 -1908.19,379.643 -1908.19,380.667C-1908.19,381.63 -1908.52,382.516 -1909.07,383.219ZM-1847.5,383.219L-1844.8,383.219C-1842.21,383.219 -1839.73,382.19 -1837.89,380.359C-1836.06,378.527 -1835.04,376.043 -1835.04,373.453L-1835.04,301.41C-1835.04,298.82 -1836.06,296.336 -1837.89,294.504C-1839.73,292.673 -1842.21,291.644 -1844.8,291.644L-1859.04,291.644L-1859.04,295.3C-1859.04,296.473 -1859.51,297.597 -1860.33,298.426C-1861.16,299.255 -1862.29,299.721 -1863.46,299.721L-1865.77,299.721L-1866.97,301.881C-1867.51,302.855 -1868.38,303.575 -1869.4,303.928C-1869.38,304.041 -1869.36,304.16 -1869.36,304.281L-1869.36,320.743C-1869.36,324.368 -1872.05,327.365 -1875.54,327.848L-1862.79,327.836L-1862.79,333.801L-1861.12,333.801C-1860.77,333.801 -1860.44,333.62 -1860.26,333.324L-1852.44,320.719C-1853.08,319.993 -1853.46,319.044 -1853.46,318.006C-1853.46,315.726 -1851.61,313.875 -1849.33,313.875C-1847.05,313.875 -1845.2,315.726 -1845.2,318.006C-1845.2,320.286 -1847.05,322.137 -1849.33,322.137C-1849.66,322.137 -1849.99,322.097 -1850.3,322.021L-1858.13,334.646C-1858.77,335.678 -1859.9,336.307 -1861.12,336.307L-1862.79,336.307L-1862.79,343.479L-1859.45,343.479C-1859.11,343.479 -1858.78,343.298 -1858.6,343.002L-1851.81,332.064C-1852.22,331.533 -1852.47,330.868 -1852.47,330.147C-1852.47,328.416 -1851.06,327.01 -1849.33,327.01C-1847.6,327.01 -1846.19,328.416 -1846.19,330.147C-1846.19,331.879 -1847.6,333.284 -1849.33,333.284C-1849.42,333.284 -1849.52,333.28 -1849.61,333.272L-1856.47,344.324C-1857.11,345.356 -1858.24,345.985 -1859.45,345.985L-1862.79,345.985L-1862.79,352.689L-1859.45,352.689C-1858.24,352.689 -1857.11,353.317 -1856.47,354.35L-1849.64,365.361C-1849.54,365.351 -1849.43,365.345 -1849.33,365.345C-1847.6,365.345 -1846.19,366.751 -1846.19,368.483C-1846.19,370.214 -1847.6,371.62 -1849.33,371.62C-1851.06,371.62 -1852.47,370.214 -1852.47,368.483C-1852.47,367.77 -1852.23,367.113 -1851.83,366.586L-1858.6,355.671C-1858.78,355.375 -1859.11,355.195 -1859.45,355.195L-1862.79,355.195L-1862.79,362.437L-1861.12,362.437C-1859.9,362.437 -1858.77,363.066 -1858.13,364.098L-1849.78,377.562C-1849.63,377.541 -1849.48,377.53 -1849.33,377.53C-1847.6,377.53 -1846.19,378.936 -1846.19,380.667C-1846.19,381.719 -1846.71,382.65 -1847.5,383.219ZM-1891.73,332.173C-1893.32,332.173 -1894.61,333.464 -1894.61,335.054C-1894.61,336.644 -1893.32,337.934 -1891.73,337.934C-1890.14,337.934 -1888.85,336.644 -1888.85,335.054C-1888.85,333.464 -1890.14,332.173 -1891.73,332.173ZM-1933.2,281.262C-1935.47,281.262 -1937.31,283.103 -1937.31,285.371C-1937.31,287.639 -1935.47,289.48 -1933.2,289.48C-1930.94,289.48 -1929.1,287.639 -1929.1,285.371C-1929.1,283.103 -1930.94,281.262 -1933.2,281.262Z" style="fill:white;"/>
                </g>
            </g>
        </g>
    </g>
</svg>
