<?xml version="1.0" encoding="UTF-8" standalone="no"?>
<svg
   width="653.40942"
   height="100"
   viewBox="0 0 653.40943 100"
   version="1.1"
   xml:space="preserve"
   style="clip-rule:evenodd;fill-rule:evenodd;stroke-linejoin:round;stroke-miterlimit:2"
   id="svg3"
   xmlns="http://www.w3.org/2000/svg"
   xmlns:svg="http://www.w3.org/2000/svg"
   xmlns:serif="http://www.serif.com/"><defs
   id="defs3" />
    <g
   transform="matrix(1.4275625,0,0,1.4275625,-803.2196,-445.32241)"
   id="g3">
        <g
   id="_3D-Printer_White"
   serif:id="3D Printer_White"
   transform="translate(344.4931,-7.5769992)">
            <rect
   x="218.158"
   y="319.52301"
   width="70"
   height="70"
   style="fill:none"
   id="rect1" />
            <clipPath
   id="_clip1">
                <rect
   x="218.158"
   y="319.52301"
   width="70"
   height="70"
   id="rect2" />
            </clipPath>
            <g
   clip-path="url(#_clip1)"
   id="g2">
                <g
   id="skinny-bug-filled"
   serif:id="skinny bug filled"
   transform="matrix(0.515523,0,0,0.515523,1222.27,180.077)">
                    <path
   d="m -1824.9,270.493 c 3.43,0 6.71,1.362 9.14,3.785 2.42,2.424 3.78,5.711 3.78,9.139 v 109.936 c 0,3.428 -1.36,6.715 -3.78,9.139 -2.43,2.424 -5.71,3.785 -9.14,3.785 h -109.94 c -3.43,0 -6.71,-1.361 -9.14,-3.785 -2.42,-2.424 -3.78,-5.711 -3.78,-9.139 V 283.417 c 0,-3.428 1.36,-6.715 3.78,-9.139 2.43,-2.423 5.71,-3.785 9.14,-3.785 z m -57.61,21.151 h -34.33 c -2.59,0 -5.08,1.029 -6.91,2.86 -1.83,1.832 -2.86,4.316 -2.86,6.906 v 72.043 c 0,2.59 1.03,5.074 2.86,6.906 1.83,1.831 4.32,2.86 6.91,2.86 h 1.28 c -0.56,-0.703 -0.89,-1.589 -0.89,-2.552 0,-2.28 1.85,-4.131 4.13,-4.131 0.35,0 0.69,0.044 1.01,0.125 l 7.8,-12.563 c 0.64,-1.032 1.77,-1.661 2.98,-1.661 h 1.67 v -7.264 h -3.17 c -0.34,0 -0.67,0.18 -0.85,0.476 l -6.86,11.05 c 0.36,0.507 0.56,1.121 0.56,1.784 0,1.731 -1.41,3.137 -3.14,3.137 -1.73,0 -3.13,-1.406 -3.13,-3.137 0,-1.732 1.4,-3.138 3.13,-3.138 0.16,0 0.31,0.012 0.45,0.033 l 6.86,-11.05 c 0.64,-1.033 1.77,-1.661 2.98,-1.661 h 3.17 v -6.704 h -3.17 c -1.21,0 -2.34,-0.628 -2.98,-1.661 l -6.86,-11.05 c -0.14,0.021 -0.29,0.032 -0.45,0.032 -1.73,0 -3.13,-1.405 -3.13,-3.137 0,-1.731 1.4,-3.137 3.13,-3.137 1.73,0 3.14,1.406 3.14,3.137 0,0.663 -0.2,1.277 -0.56,1.784 l 6.86,11.05 c 0.18,0.296 0.51,0.476 0.85,0.476 h 3.17 v -7.15 h -1.67 c -1.21,0 -2.34,-0.629 -2.98,-1.661 l -8.4,-13.53 c -0.13,0.018 -0.27,0.027 -0.41,0.027 -1.73,0 -3.13,-1.406 -3.13,-3.137 0,-1.732 1.4,-3.137 3.13,-3.137 1.73,0 3.14,1.405 3.14,3.137 0,0.677 -0.21,1.304 -0.58,1.817 l 8.38,13.501 c 0.18,0.296 0.5,0.477 0.85,0.477 h 1.67 v -4.731 c 0,-1.141 0.46,-2.235 1.26,-3.042 0.81,-0.807 1.9,-1.26 3.04,-1.26 l 11.76,-10e-4 6.27,-0.008 c 2.21,-0.003 4.01,-1.8 4.01,-4.016 v -16.462 c 0,-0.143 0.02,-0.281 0.05,-0.412 -0.95,-0.371 -1.76,-1.065 -2.27,-1.988 l -1.2,-2.16 h -2.15 c -2.44,0 -4.42,-1.979 -4.42,-4.421 z m -26.56,91.575 h 57.92 c -0.8,-0.569 -1.32,-1.5 -1.32,-2.552 0,-0.662 0.21,-1.277 0.56,-1.783 l -8.35,-13.464 c -0.18,-0.296 -0.51,-0.477 -0.86,-0.477 h -1.67 v 4.66 c 0,1.141 -0.45,2.235 -1.26,3.042 -0.81,0.807 -1.9,1.26 -3.04,1.26 h -27.47 c -1.14,0 -2.23,-0.453 -3.04,-1.26 -0.8,-0.807 -1.26,-1.901 -1.26,-3.042 v -4.66 h -1.67 c -0.35,0 -0.67,0.181 -0.85,0.477 l -7.8,12.563 c 0.62,0.723 0.99,1.66 0.99,2.684 0,0.963 -0.33,1.849 -0.88,2.552 z m 61.57,0 h 2.7 c 2.59,0 5.07,-1.029 6.91,-2.86 1.83,-1.832 2.85,-4.316 2.85,-6.906 V 301.41 c 0,-2.59 -1.02,-5.074 -2.85,-6.906 -1.84,-1.831 -4.32,-2.86 -6.91,-2.86 h -14.24 v 3.656 c 0,1.173 -0.47,2.297 -1.29,3.126 -0.83,0.829 -1.96,1.295 -3.13,1.295 h -2.31 l -1.2,2.16 c -0.54,0.974 -1.41,1.694 -2.43,2.047 0.02,0.113 0.04,0.232 0.04,0.353 v 16.462 c 0,3.625 -2.69,6.622 -6.18,7.105 l 12.75,-0.012 v 5.965 h 1.67 c 0.35,0 0.68,-0.181 0.86,-0.477 l 7.82,-12.605 c -0.64,-0.726 -1.02,-1.675 -1.02,-2.713 0,-2.28 1.85,-4.131 4.13,-4.131 2.28,0 4.13,1.851 4.13,4.131 0,2.28 -1.85,4.131 -4.13,4.131 -0.33,0 -0.66,-0.04 -0.97,-0.116 l -7.83,12.625 c -0.64,1.032 -1.77,1.661 -2.99,1.661 h -1.67 v 7.172 h 3.34 c 0.34,0 0.67,-0.181 0.85,-0.477 l 6.79,-10.938 c -0.41,-0.531 -0.66,-1.196 -0.66,-1.917 0,-1.731 1.41,-3.137 3.14,-3.137 1.73,0 3.14,1.406 3.14,3.137 0,1.732 -1.41,3.137 -3.14,3.137 -0.09,0 -0.19,-0.004 -0.28,-0.012 l -6.86,11.052 c -0.64,1.032 -1.77,1.661 -2.98,1.661 h -3.34 v 6.704 h 3.34 c 1.21,0 2.34,0.628 2.98,1.661 l 6.83,11.011 c 0.1,-0.01 0.21,-0.016 0.31,-0.016 1.73,0 3.14,1.406 3.14,3.138 0,1.731 -1.41,3.137 -3.14,3.137 -1.73,0 -3.14,-1.406 -3.14,-3.137 0,-0.713 0.24,-1.37 0.64,-1.897 l -6.77,-10.915 c -0.18,-0.296 -0.51,-0.476 -0.85,-0.476 h -3.34 v 7.242 h 1.67 c 1.22,0 2.35,0.629 2.99,1.661 l 8.35,13.464 c 0.15,-0.021 0.3,-0.032 0.45,-0.032 1.73,0 3.14,1.406 3.14,3.137 0,1.052 -0.52,1.983 -1.31,2.552 z m -44.23,-51.046 c -1.59,0 -2.88,1.291 -2.88,2.881 0,1.59 1.29,2.88 2.88,2.88 1.59,0 2.88,-1.29 2.88,-2.88 0,-1.59 -1.29,-2.881 -2.88,-2.881 z m -41.47,-50.911 c -2.27,0 -4.11,1.841 -4.11,4.109 0,2.268 1.84,4.109 4.11,4.109 2.26,0 4.1,-1.841 4.1,-4.109 0,-2.268 -1.84,-4.109 -4.1,-4.109 z"
   style="fill:#ffffff"
   id="path2" />
                </g>
            </g>
        </g>
    </g>
<text
   xml:space="preserve"
   style="font-size:41.5918px;line-height:0.7;writing-mode:lr-tb;direction:ltr;fill:#000000;stroke-width:1.11406"
   x="110.86147"
   y="48.665432"
   id="text3"><tspan
     x="110.86147"
     y="48.665432"
     style="font-style:normal;font-variant:normal;font-weight:bold;font-stretch:normal;font-size:23.7667px;line-height:0.7;font-family:Roboto;-inkscape-font-specification:'Roboto Medium';fill:#ffffff;fill-opacity:1;stroke-width:1.11406"
     id="tspan4"><tspan
       id="tspan5"
       style="font-style:normal;font-variant:normal;font-weight:bold;font-stretch:normal;font-size:41.5918px;line-height:0.7;font-family:Roboto;-inkscape-font-specification:'Roboto Medium';fill:#ffffff;fill-opacity:1;stroke-width:1.11406">Skinny R&amp;D 3D Prints</tspan></tspan><tspan
     x="110.86147"
     y="79.332336"
     style="font-style:normal;font-variant:normal;font-weight:bold;font-stretch:normal;font-size:23.7667px;line-height:0.7;font-family:Roboto;-inkscape-font-specification:'Roboto Medium';fill:#ffffff;fill-opacity:1;stroke-width:1.11406"
     id="tspan6">A collection of community designs and challenges!</tspan></text></svg>
