<?xml version="1.0" encoding="UTF-8" standalone="no"?><!DOCTYPE svg PUBLIC "-//W3C//DTD SVG 1.1//EN" "http://www.w3.org/Graphics/SVG/1.1/DTD/svg11.dtd"><svg width="100%" height="100%" viewBox="0 0 4167 1150" version="1.1" xmlns="http://www.w3.org/2000/svg" xmlns:xlink="http://www.w3.org/1999/xlink" xml:space="preserve" xmlns:serif="http://www.serif.com/" style="fill-rule:evenodd;clip-rule:evenodd;stroke-linejoin:round;stroke-miterlimit:2;"><rect id="Abbreviated-Logo-Black" serif:id="Abbreviated Logo Black" x="0" y="0" width="4166.67" height="1149.85" style="fill:none;"/><clipPath id="_clip1"><rect x="0" y="0" width="4166.67" height="1149.85"/></clipPath><g clip-path="url(#_clip1)"><g><g><g><path d="M1323.55,567.439l-0.27,0c2.014,2.649 97.936,137.849 113.196,183.176c10.319,30.655 16.15,60.257 10.417,112.271c-7.566,68.657 -86,61.448 -93.248,-3.672c-5.249,-47.143 -3.479,-86.098 -3.479,-86.098l-101.988,1.201c0,0 -0.062,51.687 0,89.558c0.121,70.468 24.866,131.325 72.189,171.156c43.729,36.807 112.881,37.451 154.975,3.228c36.501,-29.673 60.513,-62.473 72.829,-128.705c11.919,-64.089 3.806,-129.659 -3.395,-165c-9.778,-47.965 -35.829,-106.702 -82.065,-176.585l-0.318,0c-28.604,-43.11 -84.297,-121.955 -99.593,-167.382c-10.319,-30.656 -12.277,-61.798 -11.77,-114.115c0.707,-72.497 96.973,-67.041 96.286,2.892c-0.485,49.464 2.248,88.118 0.558,88.276l101.297,-1.138c-0,-0 0.279,-39.529 0.591,-86.33c0.476,-71.033 -19.352,-137.996 -67.797,-176.863c-46.004,-36.909 -123.013,-31.759 -161.513,-1.118c-42.751,34.021 -59.253,79.721 -67.947,130.001c-6.893,39.887 -4.594,128.789 1.995,164.454c9.961,53.901 11.285,71.93 69.05,160.793Z"/><rect x="2118.88" y="100.842" width="95.393" height="948.905"/><path d="M1763.11,480.07l0,-379.228l-95.347,-0l0,948.446l95.347,0l0,-248.131l44.327,-143.413l74.439,392.003l97.895,-0l-112.664,-585.057l112.358,-363.522l-99.356,-0.326l-116.999,379.228Z"/><path d="M2590.55,651.492l-0,-550.65l95.369,-0l-0,948.664l-110.656,0.241l-99.684,-611.549l-0,611.549l-95.369,-0l-0,-948.667l119.584,0l90.756,550.412Z"/><path d="M3062.2,651.494l-0,-550.652l95.369,-0l-0,948.666l-110.658,0.239l-99.683,-611.547l0,611.547l-95.371,-0l-0,-948.665l119.585,0l90.758,550.412Z"/><path d="M3364.24,653.604l-114,-552.762l102.667,-0l59.031,341.214l59.031,-340.757l102.665,-0l-114.001,552.305l0,396.143l-95.393,-0l0,-396.143Z"/></g><g><path d="M3913.37,918.142c10.899,-41.946 74.327,-41.07 74.863,-40.973c0.548,0.09 110.728,0.419 110.728,0.419c27.625,-0.359 51.692,-1.624 62.039,-10.157l-0.249,66.078c-9.644,4.791 -21.805,5.996 -33.352,6.497c-5.654,0.24 -98.743,-1.04 -134.568,-0.681c-33.55,0.345 -39.891,23.167 -40.699,27.777l-0.559,31.947l209.017,1.1l-0.238,63.152l-484.399,-1.834l0.393,-103.796c0.918,-22.133 9.621,-80.225 90.444,-80.861c79.135,-0.629 76.269,-0.038 81.199,0.568c0.99,0.128 58.559,5.457 65.381,40.764Zm-30.088,52.808c0.094,-8.316 -3.718,-16.318 -10.589,-22.238c-6.872,-5.921 -16.233,-9.26 -26.004,-9.275l-69.995,-0.134c-8.366,-0.015 -16.388,2.807 -22.297,7.837c-5.915,5.03 -8.499,11.871 -8.477,18.989c0.039,15.704 0,30.839 0,30.839l137.689,0.517c-0,-0 -0.487,-12.209 -0.327,-26.535Z"/><path d="M4161,178.03l-0.453,119.65l-484.593,-1.833l0.464,-122.917c0.183,-47.479 45.791,-85.797 101.874,-85.587l277.645,1.054c27.953,0.105 54.729,9.61 74.429,26.42c19.706,16.804 30.723,39.545 30.634,63.213Zm-70.808,10.312c0.027,-7.687 -3.549,-15.068 -9.95,-20.527c-6.401,-5.459 -15.096,-8.548 -24.172,-8.585l-274.274,-1.032c-9.076,-0.037 -17.793,2.984 -24.233,8.398c-6.439,5.407 -10.076,12.765 -10.104,20.452l-0.149,38.587l342.732,1.294l0.15,-38.587Z"/><path d="M3899.91,636.155c-5.559,30.752 -54.451,39.992 -78.18,39.229c-0,-0 -23.696,0.355 -59.203,-0.484c-90.019,-2.125 -93.568,-66.797 -93.506,-73.05l0.31,-81.632l76.876,0.287l-0.231,60.838c0.006,21.739 11.416,32.9 30.733,33.422l56.781,0.325c28.723,-3.297 32.606,-11.025 32.837,-33.323l0.074,-18.979l-52.826,-0.204l0.237,-61.595l52.82,0.197l0.068,-17.036l76.876,0.288l-0.062,17.035l176.501,0.658c23.323,-0.416 42.498,-3.818 47.91,-12.862l-0.248,64.922c-8.561,6.261 -19.599,8.416 -28.645,8.128l-17.341,-0.159l-0,0.265l0.468,0.03c5.937,1.407 28.041,5.913 38.187,20.446c7.618,10.904 9.74,42.207 3.189,58.918c-18.115,46.215 -76.758,39.205 -111.735,38.147l-75.747,-0.288c-51.167,-1.126 -70.844,-25.882 -73.666,-43.515l-2.477,-0.008Zm159.131,-72.649l-3.336,-0.015l-0.823,0.046l-0.006,-0.046l-111.599,-0.416l-0.082,20.416l-0.031,8.877c-0.05,14.344 23.769,25.534 35.795,25.723l78.445,0.295c30.366,-1.179 35.969,-16.03 36.133,-20.272c0.339,-4.567 0.282,-9.255 -0.197,-14.064c-1.795,-10.109 -18.724,-19.825 -34.299,-20.544Z"/></g></g><g><path d="M60.542,99.914c21.691,0 39.3,-17.609 39.3,-39.301c-0,-21.689 -17.609,-39.298 -39.3,-39.298c-21.688,-0 -39.3,17.609 -39.3,39.298c0,21.692 17.612,39.301 39.3,39.301Z"/><path d="M1093.86,302.084c21.691,-0 39.3,-17.61 39.3,-39.299c-0,-21.689 -17.609,-39.299 -39.3,-39.299c-21.688,0 -39.3,17.61 -39.3,39.299c0,21.689 17.612,39.299 39.3,39.299Z"/><path d="M1093.86,932.66c21.691,-0 39.3,-17.61 39.3,-39.299c-0,-21.689 -17.609,-39.299 -39.3,-39.299c-21.688,0 -39.3,17.61 -39.3,39.299c0,21.689 17.612,39.299 39.3,39.299Z"/><path d="M1093.86,1132.48c21.691,0 39.3,-17.609 39.3,-39.299c-0,-21.689 -17.609,-39.298 -39.3,-39.298c-21.688,-0 -39.3,17.609 -39.3,39.298c0,21.69 17.612,39.299 39.3,39.299Z"/><path d="M60.542,299.735c21.691,0 39.3,-17.609 39.3,-39.298c-0,-21.69 -17.609,-39.299 -39.3,-39.299c-21.688,-0 -39.3,17.609 -39.3,39.299c0,21.689 17.612,39.298 39.3,39.298Z"/><path d="M1096.61,112.679c-30.986,-0 -56.143,-25.156 -56.143,-56.143c0,-30.985 25.157,-56.141 56.143,-56.141c30.983,0 56.14,25.156 56.14,56.141c-0,30.987 -25.157,56.143 -56.14,56.143Z"/><path d="M57.404,1037.96c30.983,0 56.14,25.158 56.14,56.143c-0,30.985 -25.157,56.143 -56.14,56.143c-30.986,-0 -56.143,-25.158 -56.143,-56.143c0,-30.985 25.157,-56.143 56.143,-56.143Z"/><path d="M60.542,851.714c21.691,-0 39.3,17.609 39.3,39.299c-0,21.689 -17.609,39.298 -39.3,39.298c-21.688,0 -39.3,-17.609 -39.3,-39.298c0,-21.69 17.612,-39.299 39.3,-39.299Z"/><path d="M836.417,357.61c-8.613,-0.026 -15.586,-7.042 -15.558,-15.655c0.029,-8.613 7.044,-15.585 15.656,-15.556l71.486,0.227l173.772,-272.064c4.637,-7.258 14.294,-9.388 21.555,-4.751c7.258,4.636 9.387,14.292 4.75,21.553l-178.394,279.296c-2.874,4.504 -7.856,7.222 -13.201,7.206l-80.066,-0.256Zm0.154,157.471c-8.612,0.058 -15.652,-6.888 -15.712,-15.501c-0.056,-8.613 6.889,-15.653 15.502,-15.71l99.628,-0.668l145.776,-228.803c4.627,-7.264 14.285,-9.404 21.546,-4.775c7.265,4.629 9.404,14.282 4.778,21.548l-150.34,235.965c-2.847,4.465 -7.762,7.185 -13.056,7.219l-108.122,0.725Zm-0.211,157.198c-8.612,-0.06 -15.557,-7.1 -15.501,-15.713c0.06,-8.613 7.1,-15.559 15.712,-15.499l108.121,0.723c5.295,0.034 10.21,2.754 13.057,7.219l150.34,235.968c4.626,7.263 2.487,16.919 -4.778,21.545c-7.261,4.629 -16.919,2.489 -21.545,-4.774l-145.777,-228.804l-99.629,-0.665Zm0.155,157.468c-8.612,0.029 -15.627,-6.943 -15.656,-15.556c-0.028,-8.613 6.945,-15.627 15.558,-15.655l80.066,-0.256c5.345,-0.016 10.327,2.702 13.201,7.206l178.394,279.298c4.637,7.259 2.509,16.915 -4.75,21.552c-7.261,4.636 -16.918,2.509 -21.555,-4.752l-173.772,-272.064l-71.486,0.227Zm-517.463,-33.56c8.613,0.029 15.586,7.043 15.558,15.656c-0.029,8.613 -7.044,15.585 -15.656,15.556l-71.486,-0.228l-173.772,272.065c-4.637,7.26 -14.294,9.388 -21.555,4.751c-7.258,-4.634 -9.387,-14.293 -4.75,-21.551l178.394,-279.298c2.874,-4.504 7.856,-7.222 13.201,-7.207l80.066,0.256Zm-0.155,-157.469c8.613,-0.059 15.653,6.887 15.713,15.5c0.056,8.613 -6.889,15.652 -15.501,15.712l-99.629,0.666l-145.776,228.803c-4.627,7.263 -14.284,9.404 -21.546,4.775c-7.265,-4.627 -9.404,-14.282 -4.778,-21.546l150.34,-235.968c2.847,-4.465 7.762,-7.185 13.056,-7.219l108.121,-0.723Zm0.211,-157.197c8.613,0.058 15.558,7.097 15.502,15.71c-0.06,8.613 -7.1,15.559 -15.712,15.502l-108.122,-0.723c-5.295,-0.036 -10.21,-2.754 -13.056,-7.222l-150.34,-235.965c-4.626,-7.266 -2.487,-16.919 4.778,-21.548c7.261,-4.629 16.919,-2.488 21.545,4.775l145.777,228.803l99.628,0.668Zm-0.154,-157.471c8.612,-0.028 15.627,6.943 15.656,15.556c0.028,8.613 -6.945,15.63 -15.558,15.656l-80.066,0.256c-5.345,0.015 -10.327,-2.703 -13.201,-7.206l-178.394,-279.297c-4.637,-7.26 -2.508,-16.916 4.75,-21.553c7.261,-4.636 16.918,-2.507 21.555,4.751l173.772,272.065l71.486,-0.228Z"/><path d="M865.8,229.32l-0,697.078c-0,11.789 -4.684,23.097 -13.021,31.433c-8.336,8.337 -19.644,13.021 -31.433,13.021l-487.839,-0c-11.79,-0 -23.097,-4.684 -31.434,-13.021c-8.337,-8.336 -13.02,-19.644 -13.02,-31.433l-0,-697.078c-0,-11.79 4.683,-23.097 13.02,-31.434c8.337,-8.337 19.644,-13.02 31.434,-13.02l487.839,-0c11.789,-0 23.097,4.683 31.433,13.02c8.337,8.337 13.021,19.644 13.021,31.434Zm-464.465,169.124c30.986,-0 56.143,-25.156 56.143,-56.141c0,-30.987 -25.157,-56.142 -56.143,-56.142c-30.985,-0 -56.142,25.155 -56.142,56.142c-0,30.985 25.157,56.141 56.142,56.141Z"/></g></g></g></svg>